Simulation
nRows=15
nColumns=15
endheader
time  TH_x TH_y TH_z SC_y  SC_z  SC_x  AC_y  AC_z  AC_x  GH_y  GH_z  GH_yy  EL_x  PS_y
1.549999999999999  0.000000  0.000000  0.000000  -57.06178970074233  11.017012995387491  49.64776438153266  54.76948457788005  -6.23401024977288  -4.146440603839189  34.672150796665605  49.72467482637576  -42.87743099894671  18.381841714474813  120.000000
1.5809999999999989  0.000000  0.000000  0.000000  -56.22652509752544  11.05938690942854  49.916008117934595  54.07995656562543  -7.362607023994139  -5.641978115257935  35.30206669650187  49.04545880782225  -43.36493573233608  18.54232548997008  120.000000
1.611999999999999  0.000000  0.000000  0.000000  -55.34933083796263  11.0693297336608  50.0000005211797  53.37595605674454  -8.417165349679214  -7.119264242728349  35.980261263558184  48.20371966058674  -43.853739006593706  18.734693471623412  120.000000
1.642999999999999  0.000000  0.000000  0.000000  -54.461892950361836  11.030876914351676  49.922914289946135  52.69434280966027  -9.402781781603776  -8.54299918982089  36.6740782818481  47.19194450250498  -44.319307518888564  18.94888133687016  120.000000
1.6739999999999988  0.000000  0.000000  0.000000  -53.588850348713926  10.932615083697817  49.670284586420365  52.06303898932789  -10.310417749513737  -9.871739964971217  37.34859331755573  46.02075797542122  -44.72837256705986  19.17737762919558  120.000000
1.7049999999999987  0.000000  0.000000  0.000000  -52.74563862872915  10.766851357855495  49.2092466017517  51.499497435972344  -11.122306050726076  -11.066359349097139  37.97059585454604  44.71117893274427  -45.04041519213274  19.413109152359603  120.000000
1.7359999999999989  0.000000  0.000000  0.000000  -51.93601763076567  10.529674516382967  48.50861259683175  51.00934307771013  -11.817833922411612  -12.096398282843168  38.51101507742452  43.28652045284294  -45.211585453850354  19.64629249743529  120.000000
1.7669999999999988  0.000000  0.000000  0.000000  -51.152823604606034  10.22257525448527  47.537995502616724  50.586503040163784  -12.374540725041367  -12.940041959276515  38.94678690492342  41.771852481507125  -45.20079483748075  19.863963783362212  120.000000
1.7979999999999987  0.000000  0.000000  0.000000  -50.3805512644804  9.85191635702906  46.26817876760656  50.21690632648037  -12.769867309644761  -13.584118269822579  39.26230344180819  40.19276741085754  -44.97736358460787  20.05013373309802  120.000000
1.8289999999999988  0.000000  0.000000  0.000000  -49.597544690758  9.428187071757867  44.67569309719896  49.880459934184664  -12.98218446838429  -14.02021655786604  39.45082633571112  38.57461289856921  -44.529066723684316  20.186186766121786  120.000000
1.8599999999999988  0.000000  0.000000  0.000000  -48.78238557231279  8.962883872098969  42.74759732987053  49.55662001098535  -12.992552830315185  -14.24175278065182  39.51623908263211  36.943153336797835  -43.867451270287404  20.25383709231599  120.000000
1.8909999999999987  0.000000  0.000000  0.000000  -47.921712724799676  8.46429557332233  40.48399433138213  49.23016606941907  -12.786881923808386  -14.24492812735012  39.472538212704315  35.32443372557881  -43.029058828195524  20.23857651472668  120.000000
1.9219999999999986  0.000000  0.000000  0.000000  -47.01621895087658  7.935065693387445  37.90162897943618  48.89454035641359  -12.358375896832083  -14.031185499715113  39.34037336496862  33.74481224857438  -42.07110502921489  20.132295354671705  120.000000
1.9529999999999987  0.000000  0.000000  0.000000  -46.08149746853466  7.374298575386536  35.04043136412606  48.552232743916505  -11.712366280994633  -13.610570090358834  39.14350654571189  32.22970203678791  -41.061908132629505  19.934761694301677  120.000000
1.9839999999999987  0.000000  0.000000  0.000000  -45.144033594097934  6.781229964534094  31.97060822537632  48.21124453352858  -10.87307643495443  -13.00565019762126  38.90704427238396  30.798716705783367  -40.06736555855257  19.653418930105538  120.000000
